<svg width="138" height="48" viewBox="0 0 138 48" fill="none" xmlns="http://www.w3.org/2000/svg">
<path d="M2.80182 36V12.7273H6.31318V32.9773H16.8586V36H2.80182ZM27.7943 36.3523C26.0746 36.3523 24.5936 35.9848 23.3511 35.25C22.1163 34.5076 21.1617 33.4659 20.4875 32.125C19.8208 30.7765 19.4875 29.197 19.4875 27.3864C19.4875 25.5985 19.8208 24.0227 20.4875 22.6591C21.1617 21.2955 22.1011 20.2311 23.3057 19.4659C24.5178 18.7008 25.9345 18.3182 27.5557 18.3182C28.5405 18.3182 29.4951 18.4811 30.4193 18.8068C31.3436 19.1326 32.1731 19.6439 32.908 20.3409C33.6428 21.0379 34.2224 21.9432 34.6466 23.0568C35.0708 24.1629 35.283 25.5076 35.283 27.0909V28.2955H21.408V25.75H31.9534C31.9534 24.8561 31.7716 24.0644 31.408 23.375C31.0443 22.678 30.533 22.1288 29.8739 21.7273C29.2224 21.3258 28.4572 21.125 27.5784 21.125C26.6239 21.125 25.7905 21.3598 25.0784 21.8295C24.3739 22.2917 23.8284 22.8977 23.442 23.6477C23.0633 24.3902 22.8739 25.197 22.8739 26.0682V28.0568C22.8739 29.2235 23.0784 30.2159 23.4875 31.0341C23.9042 31.8523 24.4837 32.4773 25.2261 32.9091C25.9686 33.3333 26.836 33.5455 27.8284 33.5455C28.4724 33.5455 29.0595 33.4545 29.5898 33.2727C30.1201 33.0833 30.5784 32.803 30.9648 32.4318C31.3511 32.0606 31.6466 31.6023 31.8511 31.0568L35.067 31.6364C34.8095 32.5833 34.3474 33.4129 33.6807 34.125C33.0216 34.8295 32.192 35.3788 31.192 35.7727C30.1996 36.1591 29.067 36.3523 27.7943 36.3523ZM41.0084 18.5455L44.8607 25.3409L48.747 18.5455H52.463L47.0198 27.2727L52.5084 36H48.7925L44.8607 29.4773L40.9402 36H37.213L42.6448 27.2727L37.2811 18.5455H41.0084Z" fill="#405B6C"/>
<path d="M52.9635 36L61.8915 13.6H67.0115L75.8755 36H69.5715L65.7315 25.6C65.5182 25.024 65.3262 24.4907 65.1555 24C64.9848 23.5093 64.8248 23.0293 64.6755 22.56C64.5262 22.0907 64.3768 21.6107 64.2275 21.12C64.0995 20.6293 63.9822 20.096 63.8755 19.52L64.8995 19.488C64.7715 20.1067 64.6328 20.6613 64.4835 21.152C64.3555 21.6427 64.2168 22.112 64.0675 22.56C63.9182 23.008 63.7475 23.4773 63.5555 23.968C63.3848 24.4587 63.1928 25.0027 62.9795 25.6L59.1395 36H52.9635ZM57.3155 32.288L59.2035 27.808H69.5715L71.3315 32.288H57.3155ZM77.4238 36V18.944H82.9918L83.3118 24.544L82.0638 23.584C82.3411 22.6453 82.7678 21.8027 83.3438 21.056C83.9411 20.288 84.6558 19.6907 85.4878 19.264C86.3198 18.816 87.1944 18.592 88.1118 18.592C88.4958 18.592 88.8584 18.624 89.1998 18.688C89.5411 18.7307 89.8611 18.7947 90.1598 18.88L88.5278 25.472C88.2931 25.3227 87.9624 25.1947 87.5358 25.088C87.1091 24.96 86.6504 24.896 86.1598 24.896C85.7331 24.896 85.3491 24.9707 85.0078 25.12C84.6664 25.248 84.3784 25.44 84.1438 25.696C83.9091 25.952 83.7278 26.2613 83.5998 26.624C83.4718 26.9653 83.4078 27.3707 83.4078 27.84V36H77.4238ZM94.13 36V14.624H100.082V36H94.13ZM91.314 24V18.944H103.058V24H91.314ZM113.727 36.32C111.785 36.32 110.111 35.9467 108.703 35.2C107.295 34.432 106.207 33.3867 105.439 32.064C104.671 30.72 104.287 29.1947 104.287 27.488C104.287 26.208 104.5 25.024 104.927 23.936C105.353 22.848 105.951 21.9093 106.719 21.12C107.487 20.3093 108.393 19.6907 109.439 19.264C110.505 18.816 111.668 18.592 112.927 18.592C114.164 18.592 115.284 18.8053 116.287 19.232C117.311 19.6587 118.185 20.2667 118.911 21.056C119.657 21.8453 120.223 22.7733 120.607 23.84C121.012 24.9067 121.193 26.08 121.151 27.36L121.119 28.704H107.679L106.943 25.728H116.351L115.775 26.368V25.76C115.775 25.2907 115.647 24.8853 115.391 24.544C115.156 24.1813 114.836 23.904 114.431 23.712C114.025 23.52 113.567 23.424 113.055 23.424C112.329 23.424 111.721 23.5733 111.231 23.872C110.761 24.1493 110.399 24.5547 110.143 25.088C109.887 25.6213 109.759 26.2613 109.759 27.008C109.759 27.8613 109.929 28.5973 110.271 29.216C110.633 29.8347 111.156 30.3147 111.839 30.656C112.543 30.9973 113.396 31.168 114.399 31.168C115.06 31.168 115.636 31.0827 116.127 30.912C116.639 30.7413 117.183 30.4427 117.759 30.016L120.511 33.888C119.764 34.4853 119.007 34.9653 118.239 35.328C117.492 35.6693 116.745 35.9147 115.999 36.064C115.252 36.2347 114.495 36.32 113.727 36.32ZM129.757 36.32C127.986 36.32 126.429 36.0427 125.085 35.488C123.741 34.9333 122.695 34.2187 121.949 33.344L125.437 30.336C126.119 30.9547 126.887 31.4133 127.741 31.712C128.615 32.0107 129.383 32.16 130.045 32.16C130.279 32.16 130.493 32.1387 130.685 32.096C130.877 32.0533 131.026 31.9893 131.133 31.904C131.261 31.7973 131.357 31.6907 131.421 31.584C131.506 31.456 131.549 31.3173 131.549 31.168C131.549 30.8053 131.367 30.528 131.005 30.336C130.813 30.2507 130.493 30.144 130.045 30.016C129.618 29.8667 129.042 29.7067 128.317 29.536C127.421 29.3013 126.621 29.024 125.917 28.704C125.213 28.3627 124.615 27.968 124.125 27.52C123.655 27.072 123.282 26.56 123.005 25.984C122.749 25.3867 122.621 24.736 122.621 24.032C122.621 23.1787 122.813 22.4213 123.197 21.76C123.581 21.0987 124.114 20.5333 124.797 20.064C125.479 19.5733 126.247 19.2107 127.101 18.976C127.954 18.72 128.829 18.592 129.725 18.592C130.727 18.592 131.666 18.6987 132.541 18.912C133.437 19.104 134.269 19.392 135.037 19.776C135.826 20.1387 136.53 20.5867 137.149 21.12L134.077 24.512C133.714 24.192 133.287 23.8933 132.797 23.616C132.327 23.3387 131.837 23.1147 131.325 22.944C130.813 22.752 130.333 22.656 129.885 22.656C129.607 22.656 129.373 22.6773 129.181 22.72C128.989 22.7627 128.829 22.8267 128.701 22.912C128.573 22.9973 128.477 23.104 128.413 23.232C128.349 23.36 128.317 23.4987 128.317 23.648C128.317 23.84 128.37 24.0213 128.477 24.192C128.583 24.3627 128.754 24.5013 128.989 24.608C129.181 24.7147 129.501 24.8533 129.949 25.024C130.418 25.1733 131.09 25.3653 131.965 25.6C132.946 25.8773 133.799 26.1973 134.525 26.56C135.25 26.9227 135.837 27.3387 136.285 27.808C136.605 28.1707 136.85 28.576 137.021 29.024C137.191 29.4507 137.277 29.9307 137.277 30.464C137.277 31.5947 136.946 32.608 136.285 33.504C135.645 34.3787 134.759 35.072 133.629 35.584C132.498 36.0747 131.207 36.32 129.757 36.32Z" fill="#98B2C2"/>
</svg>
